<?xml version="1.0" encoding="utf-8"?>
<!-- Generator: Adobe Illustrator 24.1.1, SVG Export Plug-In . SVG Version: 6.00 Build 0)  -->
<svg version="1.1" id="Layer_1" xmlns="http://www.w3.org/2000/svg" xmlns:xlink="http://www.w3.org/1999/xlink" x="0px" y="0px"
	 viewBox="0 0 221.06 48.5" style="enable-background:new 0 0 221.06 48.5;" xml:space="preserve">
<style type="text/css">
	.st0{fill:#508396;}
	.st1{fill:#123256;}
	.st2{fill:#133358;}
	.st3{fill:#939598;}
	.st4{fill:#58595B;}
	.st5{fill:#2B7F95;}
</style>
<g>
	<g>
		<g>
			<path class="st0" d="M184.71,1.54l1.4-0.23v3.56h-0.74V2.12l-0.66,0.08V1.54z"/>
			<path class="st0" d="M188.11,4.87l0.55-0.9l0.26-0.39c-0.08,0.07-0.21,0.1-0.33,0.1c-0.59,0-1.15-0.4-1.15-1.16
				c0-0.69,0.5-1.22,1.31-1.22c0.78,0,1.26,0.54,1.26,1.22c0,0.47-0.25,0.92-0.43,1.22l-0.69,1.13H188.11z M188.73,1.91
				c-0.33,0-0.58,0.22-0.58,0.6s0.26,0.6,0.58,0.6c0.32,0,0.57-0.22,0.57-0.6S189.05,1.91,188.73,1.91z"/>
			<path class="st0" d="M193.41,3.43h0.53v0.59h-0.53v0.84h-0.72V4.03h-1.68V3.42l1.66-2.06h0.73V3.43z M191.74,3.43h0.96V2.2
				L191.74,3.43z"/>
			<path class="st0" d="M195.93,2.61c0.73,0.1,1.3,0.4,1.3,1.18c0,0.7-0.51,1.13-1.31,1.13c-0.33,0-0.68-0.1-0.88-0.25V4.01
				c0.21,0.15,0.51,0.3,0.84,0.3c0.4,0,0.65-0.14,0.65-0.5c0-0.48-0.61-0.61-1.28-0.67l0.12-1.78h1.78v0.66h-1.18L195.93,2.61z"/>
			<path class="st0" d="M200.43,3.01h1.6v0.63h-1.6V3.01z"/>
			<path class="st0" d="M207.51,4.21v0.66h-2.4V4.32c0.81-0.69,1.51-1.29,1.51-1.86c0-0.33-0.2-0.48-0.52-0.48
				c-0.33,0-0.68,0.21-0.91,0.41V1.68c0.26-0.24,0.64-0.38,1.1-0.38c0.62,0,1.12,0.35,1.12,1.05c0,0.69-0.59,1.32-1.34,1.87H207.51z
				"/>
			<path class="st0" d="M210.06,1.3c0.84,0,1.38,0.75,1.38,1.82c0,1.06-0.54,1.81-1.38,1.81s-1.38-0.75-1.38-1.81
				C208.68,2.05,209.23,1.3,210.06,1.3z M210.06,4.3c0.38,0,0.64-0.41,0.64-1.18c0-0.77-0.26-1.19-0.64-1.19
				c-0.39,0-0.64,0.41-0.64,1.19C209.43,3.88,209.68,4.3,210.06,4.3z"/>
			<path class="st0" d="M214.92,4.21v0.66h-2.4V4.32c0.81-0.69,1.51-1.29,1.51-1.86c0-0.33-0.2-0.48-0.52-0.48
				c-0.33,0-0.68,0.21-0.91,0.41V1.68c0.26-0.24,0.64-0.38,1.1-0.38c0.62,0,1.12,0.35,1.12,1.05c0,0.69-0.59,1.32-1.34,1.87H214.92z
				"/>
			<path class="st0" d="M217.47,1.3c0.84,0,1.38,0.75,1.38,1.82c0,1.06-0.54,1.81-1.38,1.81s-1.38-0.75-1.38-1.81
				C216.09,2.05,216.63,1.3,217.47,1.3z M217.47,4.3c0.38,0,0.64-0.41,0.64-1.18c0-0.77-0.26-1.19-0.64-1.19
				c-0.39,0-0.64,0.41-0.64,1.19C216.83,3.88,217.08,4.3,217.47,4.3z"/>
		</g>
		<g>
			<path class="st0" d="M188.01,37.64h1.05l-1.61,2.79v1.65h-0.94v-1.65l-1.59-2.79h1.04l1.04,1.89L188.01,37.64z"/>
			<path class="st0" d="M196.03,41.24v0.83h-2.88v-4.44h2.83v0.83h-1.9v0.97h1.74v0.81h-1.74v0.99H196.03z"/>
			<path class="st0" d="M201.35,41.13l-0.34,0.94h-0.99l1.72-4.44h1.14l1.73,4.44h-1.03l-0.34-0.94H201.35z M202.3,38.55l-0.66,1.81
				h1.32L202.3,38.55z"/>
			<path class="st0" d="M209.66,42.07h-0.94v-4.42c0.31-0.05,0.85-0.09,1.26-0.09c1.15,0,1.85,0.5,1.85,1.49
				c0,0.64-0.37,1.1-0.84,1.31l1.26,1.7h-1.12l-1.06-1.49h-0.41V42.07z M209.66,39.8h0.32c0.54,0,0.89-0.2,0.89-0.72
				c0-0.48-0.34-0.7-0.89-0.7c-0.09,0-0.25,0.01-0.32,0.01V39.8z"/>
			<path class="st0" d="M216.15,40.88c0.34,0.25,0.71,0.46,1.2,0.46c0.38,0,0.72-0.13,0.72-0.5c0-0.34-0.28-0.46-0.74-0.6
				c-0.89-0.25-1.25-0.62-1.25-1.37c0-0.84,0.66-1.31,1.48-1.31c0.5,0,0.87,0.13,1.18,0.33v0.93c-0.35-0.28-0.71-0.46-1.15-0.46
				c-0.38,0-0.59,0.19-0.59,0.46c0,0.31,0.25,0.44,0.77,0.58c0.89,0.25,1.23,0.65,1.23,1.4c0,0.93-0.73,1.34-1.64,1.34
				c-0.49,0-0.92-0.13-1.2-0.32V40.88z"/>
		</g>
		<path class="st0" d="M184.7,6.26v5.85h12.67c0,0-10.29,8.58-12.67,24.07l7.56,0c2.36-14.76,11.44-22.32,13.69-24.12l0.56-5.81
			H184.7z"/>
		<g>
			<path class="st1" d="M218.77,19.58v-7.51h-12.81l-0.37,5.9c1.15-1.01,3.37-1.61,5.07-1.61
				C214.09,16.35,216.91,17.47,218.77,19.58z"/>
			<path class="st1" d="M213.9,36.18h4.88V32.8C217.59,34.29,215.95,35.47,213.9,36.18z"/>
			<g>
				<path class="st1" d="M204.29,35.96c-0.02-0.01-0.04-0.02-0.06-0.02c-0.38-0.16-0.75-0.33-1.1-0.53c-0.01,0-0.01-0.01-0.02-0.01
					c-0.18-0.1-0.35-0.2-0.53-0.3c0,0,0,0,0,0c-0.35-0.21-0.68-0.44-0.99-0.69c0,0,0,0,0,0c-2.28-1.76-3.68-4.24-3.88-6.75
					l6.73-1.38c0,0,0,0,0,0l0,0c0.13,2.23,1.78,4.34,4.57,4.47c0.09,0,0.18,0.01,0.27,0.01c2.44,0,4.47-1.61,4.47-4.33
					c0-2.9-2.12-4.34-4.43-4.42c-0.07,0-0.15,0-0.22,0c-2.03,0-3.46,1.01-4.2,1.94c0,0,0,0,0,0c0,0,0,0,0,0
					c-0.11-0.04-4.7-1.46-6.68-2.1c-0.3,0.45-4.11,6.27-5.32,14.36l11.96,0C204.67,36.11,204.48,36.04,204.29,35.96z"/>
				<line class="st2" x1="192.27" y1="36.18" x2="192.27" y2="36.18"/>
			</g>
		</g>
	</g>
	<rect x="173.21" y="1.58" class="st3" width="0.3" height="40.74"/>
	<g>
		<g>
			<polygon class="st4" points="89.79,37.75 87.44,34.85 86.29,34.85 86.29,42.32 87.56,42.32 87.56,36.9 89.64,39.48 89.94,39.48 
				91.99,36.91 91.99,42.32 93.27,42.32 93.27,34.85 92.13,34.85 			"/>
			<path class="st4" d="M98.77,34.75c-1.14,0-2.1,0.37-2.85,1.09c-0.75,0.73-1.13,1.66-1.13,2.77c0,1.08,0.38,1.99,1.12,2.71
				c0.75,0.72,1.69,1.08,2.81,1.08c1.17,0,2.15-0.36,2.92-1.08c0.77-0.72,1.16-1.64,1.16-2.73c0-1.1-0.39-2.02-1.15-2.75
				C100.88,35.11,99.91,34.75,98.77,34.75z M98.78,41.21c-0.77,0-1.42-0.25-1.93-0.74c-0.51-0.49-0.77-1.12-0.77-1.86
				c0-0.77,0.26-1.41,0.76-1.9c0.51-0.49,1.17-0.74,1.96-0.74c0.75,0,1.39,0.25,1.91,0.75c0.51,0.5,0.77,1.12,0.77,1.85
				c0,0.75-0.26,1.39-0.77,1.89C100.2,40.96,99.55,41.21,98.78,41.21z"/>
			<polygon class="st4" points="103.26,35.99 105.74,35.99 105.74,42.32 107.02,42.32 107.02,35.99 109.54,35.99 109.54,34.84 
				103.26,34.84 			"/>
			<path class="st4" d="M114,34.75c-1.14,0-2.1,0.37-2.85,1.09c-0.75,0.73-1.13,1.66-1.13,2.77c0,1.08,0.38,1.99,1.12,2.71
				c0.75,0.72,1.69,1.08,2.81,1.08c1.17,0,2.15-0.36,2.92-1.08c0.77-0.72,1.16-1.64,1.16-2.73c0-1.1-0.39-2.02-1.15-2.75
				C116.11,35.11,115.15,34.75,114,34.75z M114.01,41.21c-0.77,0-1.42-0.25-1.93-0.74c-0.51-0.49-0.77-1.12-0.77-1.86
				c0-0.77,0.26-1.41,0.76-1.9c0.51-0.49,1.17-0.74,1.96-0.74c0.75,0,1.39,0.25,1.91,0.75c0.51,0.5,0.77,1.12,0.77,1.85
				c0,0.75-0.26,1.39-0.77,1.89C115.44,40.96,114.78,41.21,114.01,41.21z"/>
			<path class="st4" d="M124.37,40.69c-0.4-0.65-0.72-1.12-0.94-1.39c-0.17-0.21-0.35-0.38-0.53-0.52c0.32-0.16,0.58-0.37,0.77-0.65
				c0.22-0.33,0.34-0.72,0.34-1.16c0-0.65-0.23-1.18-0.69-1.56c-0.45-0.38-1.06-0.57-1.82-0.57h-1.93v7.47h1.27v-3.15h0.15
				c0.4,0,0.58,0.06,0.67,0.1c0.13,0.07,0.29,0.19,0.46,0.36c0.17,0.17,0.37,0.4,0.57,0.69l0.67,1.1l0.2,0.29
				c0.03,0.04,0.05,0.06,0.06,0.08l0.35,0.53h1.53l-0.52-0.7C124.82,41.41,124.62,41.1,124.37,40.69z M120.84,35.96h0.19
				c0.49,0,0.85,0.04,1.05,0.11c0.2,0.07,0.34,0.18,0.45,0.34c0.11,0.17,0.16,0.35,0.16,0.55c0,0.21-0.05,0.4-0.15,0.56
				c-0.1,0.16-0.23,0.28-0.4,0.36c-0.18,0.08-0.53,0.12-1.03,0.12h-0.28V35.96z"/>
			<path class="st4" d="M129.03,38.21l-0.79-0.47c-0.34-0.2-0.59-0.39-0.74-0.57c-0.14-0.17-0.21-0.34-0.21-0.53
				c0-0.21,0.09-0.37,0.28-0.51c0.2-0.14,0.45-0.21,0.77-0.21c0.57,0,1.1,0.24,1.6,0.72l0.2,0.19v-1.51l-0.05-0.03
				c-0.52-0.35-1.1-0.53-1.73-0.53c-0.66,0-1.2,0.19-1.62,0.56c-0.42,0.38-0.63,0.87-0.63,1.47c0,0.4,0.11,0.77,0.34,1.08
				c0.22,0.3,0.58,0.61,1.09,0.92l0.79,0.48c0.6,0.37,0.9,0.76,0.9,1.15c0,0.24-0.09,0.43-0.28,0.59c-0.19,0.16-0.44,0.24-0.73,0.24
				c-0.69,0-1.32-0.34-1.85-1.02l-0.21-0.27v1.71l0.05,0.04c0.6,0.45,1.28,0.68,2.02,0.68c0.65,0,1.19-0.19,1.59-0.58
				c0.41-0.38,0.62-0.89,0.62-1.5C130.41,39.47,129.94,38.76,129.03,38.21z"/>
		</g>
		<path class="st4" d="M64.48,20.34h1.3v-2.27h1.4c0.34,0,0.61,0.29,0.61,0.62v1.65c0,0,1.62,0,1.83,0c0,0.45,0,1.49,0,1.49H67.8
			v3.82c0,1.15,0.24,1.45,1.1,1.45c0.19,0,0.31-0.01,0.56-0.1v1.51c-0.42,0.09-0.78,0.12-1.18,0.12c-1.02,0-1.71-0.26-2.1-0.77
			c-0.32-0.4-0.39-0.74-0.39-2v-4.05h-1.3V20.34z"/>
		<path class="st4" d="M13.89,15.84h1.39c0.37,0,0.62,0.31,0.62,0.61v4.02c0.67-0.24,1.2-0.34,1.82-0.34c2.34,0,3.81,1.57,3.81,4.07
			c0,2.86-1.85,4.44-5.21,4.44c-0.78,0-1.39-0.07-2.44-0.26V15.84z M15.91,26.96c0.32,0.03,0.5,0.05,0.78,0.05
			c1.84,0,2.81-0.92,2.81-2.71c0-1.62-0.85-2.55-2.33-2.55c-0.43,0-0.75,0.04-1.25,0.24V26.96z"/>
		<path class="st4" d="M28.36,15.84h1.39c0.36,0,0.62,0.28,0.62,0.62V28.3c-1.24,0.25-2.2,0.35-3.15,0.35
			c-2.99,0-4.57-1.43-4.57-4.14c0-2.67,1.71-4.36,4.39-4.36c0.5,0,0.86,0.04,1.32,0.16V15.84z M28.36,21.94
			c-0.37-0.11-0.7-0.16-1.12-0.16c-1.59,0-2.54,0.99-2.54,2.67c0,1.66,0.88,2.59,2.47,2.59c0.45,0,0.77-0.05,1.19-0.18V21.94z"/>
		<path class="st4" d="M33.96,20.34v4.86c0,1.27,0.42,1.7,1.71,1.7c0.46,0,0.85-0.04,1.34-0.12v-6.44h2.02v7.91
			c-1.49,0.29-2.44,0.39-3.52,0.39c-1.31,0-2.21-0.26-2.78-0.76c-0.58-0.55-0.78-1.22-0.78-2.59v-4.94H33.96"/>
		<path class="st4" d="M40.6,15.84h1.39c0.37,0,0.63,0.29,0.63,0.62v12.08H40.6V15.84z"/>
		<path class="st4" d="M127.88,15.84h1.39c0.36,0,0.62,0.29,0.62,0.62v12.08h-2.01V15.84z"/>
		<path class="st4" d="M47.67,15.84h1.51c0.37,0,0.62,0.29,0.62,0.62v10.17h4.97v1.92h-7.1V15.84z"/>
		<path class="st4" d="M70.83,17.42h2.03v1.5h-2.03V17.42z M70.85,20.34c0.77,0,1.74,0,2.01,0v8.2h-2.01V20.34z"/>
		<path class="st4" d="M86.09,15.83c0.35,0,0.61,0.29,0.61,0.62v8.4c0,1.82-0.22,4.97-3.32,6.35c-0.33-0.58-0.79-1.38-1.04-1.84
			c0.83-0.45,1.35-0.91,1.69-1.52c0.42-0.79,0.54-1.73,0.54-4.16v-7.85H86.09z"/>
		<path class="st4" d="M97.25,20.34c1.49,0,4.04-0.57,5.84,0.19c0.34-0.11,1.51-0.4,2.79-0.4c2.97,0,3.33,1.55,3.33,3.06v5.35h-2.01
			v-5.21c0-1.45-1.14-1.87-2.9-1.47c0,0.45-0.01,6.69-0.01,6.69h-2.01v-5.2c0-1.14-0.68-1.96-3.01-1.47v6.67h-2.02V20.34z"/>
		<path class="st4" d="M8.54,17.1c-0.15-0.35-0.34-0.65-0.95-0.65H5.91C3.94,20.96,2.62,24.18,1,28.54h2.27
			c1.03-2.94,2.47-6.72,3.77-9.98c0.51,1.42,1.22,3.56,1.48,4.45H6.62L6,24.71h3.09c0.32,0.95,0.92,2.75,1.27,3.82h2.41
			C11.19,24.04,9.57,19.62,8.54,17.1"/>
		<path class="st4" d="M112.33,24.87c0.32,3,4.1,2.33,5.25,1.28v1.68c-1,0.58-1.85,0.82-3,0.82c-2.64,0-4.2-1.56-4.2-4.19
			c0-2.6,1.59-4.31,4.01-4.31c3.64,0,3.61,3.54,3.61,4.73H112.33 M116.06,23.48c-0.08-1.15-0.66-1.78-1.75-1.78
			c-1.16,0-1.82,0.76-1.97,1.78H116.06z"/>
		<path class="st4" d="M120.99,24.87c0.32,3,4.1,2.33,5.25,1.28v1.68c-1,0.58-1.85,0.82-3,0.82c-2.63,0-4.19-1.56-4.19-4.19
			c0-2.6,1.59-4.31,4-4.31c3.64,0,3.61,3.54,3.62,4.73H120.99 M124.71,23.48c-0.08-1.15-0.66-1.78-1.75-1.78
			c-1.16,0-1.82,0.76-1.97,1.78H124.71z"/>
		<path class="st4" d="M63.22,20.34v7.94c-1.77,0.37-7.72,1.51-7.72-3.9c0-2.66,1.71-4.24,4.39-4.24
			C61.34,20.13,62.19,20.34,63.22,20.34 M61.21,21.86c-0.46-0.09-3.66-0.75-3.66,2.51c0,3.22,3.25,2.61,3.66,2.46V21.86z"/>
		<path class="st4" d="M95.72,20.34v7.94c-1.77,0.37-7.72,1.51-7.72-3.9c0-2.67,1.71-4.24,4.39-4.24
			C93.83,20.14,94.69,20.34,95.72,20.34 M93.71,21.87c-0.46-0.09-3.65-0.74-3.65,2.52c0,3.22,3.25,2.61,3.65,2.46V21.87z"/>
		<path class="st4" d="M74.07,20.34l1.3,0c0-1.91,0.3-2.93,1.12-3.67c0.64-0.58,1.54-0.91,2.55-0.91c0.31,0,0.49,0.03,0.85,0.09
			v1.61c-0.27-0.05-0.42-0.07-0.63-0.07c-0.64,0-1.15,0.22-1.45,0.62c-0.32,0.41-0.42,0.98-0.42,2.32h2.03v1.5h-2.03v6.7h-2.02v-6.7
			h-1.3V20.34z"/>
		<g>
			<g>
				<path class="st5" d="M144.74,25.28c0.08,0.06,0.17,0.2,0.12,0.37c-0.05,0.16-0.2,0.21-0.3,0.21h-1.97
					c-0.24,0.01-0.4-0.03-0.52-0.12c-0.13-0.09-0.21-0.23-0.29-0.49c0,0-0.56-1.71-0.59-1.83c-0.04-0.14,0.01-0.28,0.1-0.35
					c0.11-0.09,0.27-0.1,0.38-0.01C141.79,23.13,144.74,25.28,144.74,25.28"/>
				<path class="st5" d="M143.2,18.86c-0.08,0.03-0.13,0.09-0.13,0.16c0,0.07,0.04,0.12,0.07,0.14c0.04,0.02,0.96,0.7,1.06,0.77
					c0.1,0.07,0.2,0.07,0.27,0.04c0.07-0.02,2.31-0.75,2.31-0.75l0,4.22c0,0-4.48-3.26-4.81-3.5c-0.34-0.24-0.74-0.44-1.37-0.24
					c-0.66,0.21-2.38,0.77-2.65,0.86c-0.28,0.09-0.4,0.35-0.32,0.61c0.07,0.22,1.78,5.48,1.93,5.94c0.33,1.02,0.89,1.42,1.94,1.42
					c0.27,0,6.55,0,6.55,0c0.1,0,0.17-0.07,0.19-0.16v-1.12c0-0.1-0.09-0.18-0.19-0.18l-6.1,0c-0.78-0.01-0.93-0.2-1.11-0.73
					c-0.11-0.36-1.51-4.65-1.51-4.67c0-0.01,0-0.04,0.02-0.05c0.02-0.01,0.83-0.27,1.25-0.41c0.43-0.14,0.68,0.05,0.94,0.24
					c0.26,0.19,5.88,4.27,6.09,4.42c0.21,0.16,0.59,0.04,0.59-0.32c0-0.37,0-8.35,0-8.35S143.29,18.83,143.2,18.86"/>
			</g>
			<g>
				<path class="st5" d="M146.95,6.77c-0.1,0-0.25-0.06-0.31-0.23c-0.05-0.16,0.04-0.29,0.12-0.35l1.59-1.16
					c0.19-0.14,0.34-0.2,0.49-0.2c0.16,0,0.31,0.07,0.52,0.23c0,0,1.45,1.06,1.55,1.13c0.11,0.08,0.16,0.23,0.12,0.34
					c-0.04,0.14-0.16,0.24-0.3,0.24C150.61,6.77,146.95,6.77,146.95,6.77"/>
				<path class="st5" d="M151.97,11.05c0.05-0.07,0.05-0.15,0.01-0.2c-0.05-0.06-0.1-0.07-0.14-0.07c-0.04,0-1.19,0-1.31,0
					c-0.12,0-0.2,0.06-0.25,0.12c-0.04,0.06-1.43,1.97-1.43,1.97l-2.48-3.42c0,0,5.54,0,5.95,0c0.42,0,0.86-0.08,1.25-0.61
					c0.41-0.56,1.47-2.02,1.64-2.26c0.17-0.24,0.12-0.52-0.11-0.68c-0.19-0.13-4.67-3.39-5.05-3.67c-0.86-0.63-1.55-0.63-2.41-0.01
					c-0.22,0.16-5.3,3.85-5.3,3.85c-0.08,0.06-0.1,0.16-0.05,0.24l0.66,0.91c0.06,0.08,0.17,0.09,0.25,0.04l4.93-3.59
					c0.64-0.46,0.87-0.39,1.32-0.06c0.31,0.23,3.95,2.88,3.97,2.89c0.01,0.01,0.02,0.03,0.01,0.05c-0.01,0.02-0.51,0.7-0.77,1.07
					c-0.26,0.36-0.58,0.36-0.9,0.36c-0.32,0-7.27,0-7.53,0c-0.27,0-0.5,0.32-0.29,0.61c0.22,0.3,4.91,6.75,4.91,6.75
					S151.92,11.13,151.97,11.05"/>
			</g>
			<g>
				<path class="st5" d="M139.12,15.22c-0.03,0.1-0.14,0.22-0.31,0.22c-0.17,0-0.26-0.12-0.29-0.22l-0.61-1.87
					c-0.08-0.22-0.09-0.39-0.04-0.53c0.05-0.15,0.16-0.27,0.38-0.42c0,0,1.46-1.06,1.56-1.13c0.12-0.08,0.27-0.08,0.37-0.01
					c0.12,0.08,0.17,0.23,0.13,0.36C140.25,11.74,139.12,15.22,139.12,15.22"/>
				<path class="st5" d="M144.75,11.77c-0.05-0.07-0.12-0.09-0.19-0.07c-0.07,0.02-0.1,0.07-0.11,0.11
					c-0.01,0.04-0.37,1.13-0.4,1.24c-0.04,0.12,0,0.21,0.04,0.27c0.04,0.06,1.43,1.97,1.43,1.97l-4.01,1.31c0,0,1.71-5.26,1.84-5.66
					c0.13-0.4,0.19-0.84-0.19-1.37c-0.41-0.56-1.46-2.02-1.64-2.26c-0.17-0.23-0.45-0.27-0.68-0.11c-0.19,0.14-4.66,3.39-5.05,3.67
					c-0.87,0.62-1.08,1.28-0.75,2.29c0.08,0.25,2.03,6.23,2.03,6.23c0.03,0.09,0.12,0.14,0.21,0.13l1.07-0.35
					c0.1-0.03,0.14-0.14,0.11-0.23l-1.89-5.8c-0.24-0.75-0.1-0.95,0.35-1.28c0.31-0.22,3.96-2.87,3.97-2.88
					c0.01-0.01,0.04-0.01,0.05,0.01c0.02,0.02,0.51,0.7,0.77,1.06c0.26,0.36,0.16,0.66,0.06,0.97c-0.1,0.31-2.24,6.91-2.32,7.16
					c-0.08,0.25,0.15,0.58,0.49,0.47c0.35-0.12,7.94-2.58,7.94-2.58S144.8,11.84,144.75,11.77"/>
				<path class="st5" d="M156.05,23.04c0.09-0.06,0.24-0.1,0.38,0c0.14,0.1,0.14,0.25,0.11,0.35l-0.61,1.87
					c-0.07,0.23-0.15,0.37-0.27,0.45c-0.13,0.09-0.29,0.13-0.56,0.12c0,0-1.8,0-1.92,0c-0.14,0-0.26-0.09-0.3-0.21
					c-0.05-0.13-0.01-0.29,0.11-0.37C153.08,25.19,156.05,23.04,156.05,23.04"/>
				<path class="st5" d="M149.46,22.53c0,0.09,0.04,0.15,0.11,0.17c0.07,0.02,0.12,0,0.16-0.02c0.04-0.03,0.96-0.7,1.06-0.77
					c0.1-0.07,0.13-0.17,0.13-0.25c0-0.08,0-2.43,0-2.43l4.02,1.3c0,0-4.48,3.25-4.81,3.5c-0.33,0.25-0.65,0.57-0.65,1.23
					c0,0.7,0,2.5,0,2.79c0,0.29,0.21,0.49,0.49,0.49c0.23,0,5.77,0,6.24,0c1.07,0,1.63-0.4,1.95-1.41c0.08-0.25,2.02-6.23,2.02-6.23
					c0.03-0.09-0.02-0.19-0.1-0.23l-1.07-0.35c-0.1-0.03-0.2,0.03-0.23,0.12l-1.88,5.8c-0.25,0.74-0.48,0.82-1.04,0.83
					c-0.38,0-4.89,0-4.91,0c-0.01,0-0.04-0.01-0.04-0.03c0-0.02,0-0.87,0-1.32c0-0.45,0.26-0.63,0.52-0.82
					c0.26-0.19,5.88-4.27,6.09-4.43c0.21-0.16,0.22-0.55-0.12-0.66c-0.35-0.11-7.94-2.58-7.94-2.58S149.46,22.43,149.46,22.53"/>
			</g>
			<g>
				<path class="st5" d="M157.41,11.6c-0.03-0.1-0.02-0.26,0.12-0.36c0.14-0.1,0.28-0.06,0.37,0.01l1.59,1.16
					c0.19,0.14,0.3,0.26,0.35,0.4c0.05,0.15,0.03,0.31-0.06,0.57c0,0-0.56,1.71-0.6,1.83c-0.04,0.14-0.17,0.22-0.29,0.22
					c-0.14,0-0.28-0.08-0.32-0.22C158.54,15.08,157.41,11.6,157.41,11.6"/>
				<path class="st5" d="M154.89,17.7c0.09,0.03,0.15,0.01,0.2-0.06c0.04-0.06,0.04-0.12,0.03-0.16c-0.01-0.04-0.37-1.13-0.4-1.24
					c-0.04-0.11-0.12-0.17-0.19-0.2c-0.07-0.02-2.31-0.75-2.31-0.75l2.48-3.42c0,0,1.71,5.26,1.84,5.66c0.13,0.39,0.34,0.79,0.97,1
					c0.66,0.22,2.37,0.78,2.65,0.86c0.28,0.09,0.53-0.05,0.62-0.31c0.07-0.22,1.78-5.48,1.93-5.94c0.33-1.02,0.12-1.67-0.74-2.29
					c-0.22-0.16-5.3-3.85-5.3-3.85c-0.08-0.06-0.18-0.04-0.25,0.02l-0.66,0.91c-0.06,0.08-0.04,0.19,0.04,0.25l4.93,3.58
					c0.63,0.47,0.64,0.71,0.47,1.24c-0.12,0.36-1.51,4.65-1.52,4.66c0,0.01-0.02,0.03-0.04,0.02c-0.02-0.01-0.83-0.27-1.25-0.41
					c-0.43-0.14-0.52-0.44-0.62-0.74c-0.1-0.31-2.25-6.91-2.33-7.16c-0.08-0.25-0.46-0.38-0.67-0.09c-0.22,0.3-4.9,6.75-4.9,6.75
					S154.79,17.67,154.89,17.7"/>
			</g>
			<g>
				<g>
					<path class="st4" d="M160.35,5.19h-0.42V2.73c0.15-0.02,0.41-0.05,0.61-0.05c0.65,0,1,0.29,1,0.8c0,0.36-0.2,0.62-0.49,0.73
						l0.74,0.97h-0.51l-0.65-0.87h-0.28V5.19z M160.35,3.97h0.21c0.34,0,0.55-0.14,0.55-0.46c0-0.28-0.19-0.45-0.57-0.45
						c-0.05,0-0.14,0-0.19,0.01V3.97z"/>
				</g>
				<path class="st4" d="M160.64,6.2c-1.22,0-2.21-0.99-2.21-2.21s0.99-2.21,2.21-2.21s2.21,0.99,2.21,2.21S161.86,6.2,160.64,6.2z
					 M160.64,2.14c-1.02,0-1.85,0.83-1.85,1.85s0.83,1.85,1.85,1.85c1.02,0,1.85-0.83,1.85-1.85S161.65,2.14,160.64,2.14z"/>
			</g>
		</g>
	</g>
</g>
</svg>
