<?xml version="1.0" encoding="UTF-8" standalone="no"?>
<svg width="30px" height="30px" viewBox="0 0 30 30" version="1.1" xmlns="http://www.w3.org/2000/svg" xmlns:xlink="http://www.w3.org/1999/xlink">
    <!-- Generator: sketchtool 48.2 (47327) - http://www.bohemiancoding.com/sketch -->
    <title>33C9291A-0ABA-4DB8-86BB-E4E9487E6757</title>
    <desc>Created with sketchtool.</desc>
    <defs></defs>
    <g id="Homepage-mobile" stroke="none" stroke-width="1" fill="none" fill-rule="evenodd" transform="translate(-78.000000, -452.000000)">
        <g id="quick-links" transform="translate(20.000000, 452.000000)">
            <g id="Group-2" transform="translate(15.000000, 0.000000)">
                <g id="icon" transform="translate(43.000000, 0.000000)">
                    <g id="Group-3" transform="translate(0.000000, 0.004659)" fill="#000000">
                        <path d="M14.9955085,0.674220048 C11.1532973,0.674220048 7.54512328,2.14315397 4.83542765,4.81050392 C2.12156743,7.48213992 0.626921965,11.0342791 0.626921965,14.8125227 C0.626921965,18.5908285 2.12156743,22.1428434 4.83542765,24.8143552 C7.54524948,27.481643 11.1535497,28.9505769 14.9957609,28.9505769 C18.8379721,28.9505769 22.4462092,27.481643 25.1558417,24.8143552 C27.8697019,22.1429055 29.3643474,18.5908906 29.3643474,14.8125227 C29.3643474,11.0342169 27.8697019,7.4820778 25.1558417,4.81050392 C22.4461461,2.14315397 18.837909,0.674220048 14.9955085,0.674220048 M14.9955085,29.5675192 C10.9857041,29.5675192 7.220033,28.0344188 4.39221451,25.2506623 C1.55985282,22.4626198 2.52399285e-05,18.7555618 2.52399285e-05,14.8125227 C2.52399285e-05,10.8694837 1.55985282,7.16242565 4.39221451,4.37419675 C7.2198437,1.59050237 10.9855148,0.0574640888 14.9955716,0.0574640888 C19.0056914,0.0574640888 22.7713626,1.59050237 25.5990549,4.37419675 C28.4314165,7.16242565 29.9912441,10.8694837 29.9912441,14.8125227 C29.9912441,18.7555618 28.4314165,22.4626198 25.5990549,25.2506623 C22.7712364,28.0344188 19.005439,29.5675192 14.9955085,29.5675192" id="Fill-1"></path>
                    </g>
                    <path d="M13.110212,5.92915599 C11.3565418,6.28607811 9.75386943,7.13993322 8.47540395,8.39854026 C7.20305915,9.65093563 6.3376451,11.2286358 5.97273883,12.9610684 L5.95040149,13.0669772 L9.57094304,13.0669772 C11.5818082,13.0669772 13.2177341,11.4565417 13.2177341,9.47700908 L13.2177341,5.90729094 L13.110212,5.92915599 Z M16.7735353,9.47700908 C16.7735353,11.4565417 18.4093981,13.0669772 20.4203263,13.0669772 L24.04661,13.0669772 L24.0243988,12.9611305 C23.6618904,11.2349095 22.7944571,9.65720941 21.5158654,8.39854026 C20.2373999,7.13999534 18.6347276,6.28607811 16.8810573,5.92915599 L16.7735353,5.90729094 L16.7735353,9.47700908 Z M20.4203263,16.5673111 C18.4093981,16.5673111 16.7735353,18.1777467 16.7735353,20.1572793 L16.7735353,23.7270596 L16.8810573,23.7051324 C18.6346645,23.3482724 20.2373368,22.4943552 21.5158654,21.2357481 C22.7944571,19.9771411 23.6618904,18.3993788 24.0243988,16.6731579 L24.04661,16.5673111 L20.4203263,16.5673111 Z M5.97273883,16.67322 C6.3376451,18.4056526 7.20305915,19.9833527 8.47540395,21.2357481 C9.75393253,22.4944173 11.3566049,23.3483345 13.110212,23.7051945 L13.2177341,23.7271217 L13.2177341,20.1572793 C13.2177341,18.1777467 11.5818082,16.5673111 9.57094304,16.5673111 L5.95040149,16.5673111 L5.97273883,16.67322 Z M5.8411126,13.761938 C5.75857804,14.4621166 5.75857804,15.1721096 5.8411126,15.8723503 L5.85026208,15.9502446 L9.57094304,15.9502446 C11.927469,15.9502446 13.8446308,17.8374719 13.8446308,20.1572793 L13.8446308,23.8248311 L13.9238211,23.833838 C14.2802089,23.8741517 14.6408244,23.8945881 14.9955085,23.8945881 C15.3505081,23.8945881 15.7111867,23.8741517 16.0674483,23.8337759 L16.1466385,23.824769 L16.1466385,20.1572793 C16.1466385,17.8374719 18.0638004,15.9502446 20.4203263,15.9502446 L24.1459291,15.9502446 L24.1550155,15.8722882 C24.1960934,15.5210187 24.2168533,15.1660843 24.2168533,14.8171752 C24.2168533,14.4682662 24.1960934,14.1132697 24.1550155,13.7620623 L24.1459291,13.6840438 L20.4203263,13.6840438 C18.0638004,13.6840438 16.1466385,11.7967544 16.1466385,9.47700908 L16.1466385,5.80964361 L16.0674483,5.8006367 C15.7108712,5.76026089 15.3502557,5.7397624 14.9955085,5.7397624 C14.6410137,5.7397624 14.2803982,5.76026089 13.9238211,5.8006367 L13.8446308,5.80958149 L13.8446308,9.47700908 C13.8446308,11.7967544 11.927469,13.6840438 9.57094304,13.6840438 L5.85026208,13.6840438 L5.8411126,13.761938 Z M14.9955085,24.5117789 C12.3651924,24.5117789 9.89224733,23.5032534 8.0321277,21.6721174 C6.17509996,19.843963 5.15237805,17.4095504 5.15237805,14.8171752 C5.15237805,12.2248001 6.17509996,9.79032534 8.0321277,7.96223309 C9.89218423,6.13109713 12.3650662,5.12269586 14.9955085,5.12269586 C17.6260138,5.12269586 20.0990851,6.13109713 21.9590786,7.96217098 C23.8192613,9.7931827 24.8436869,12.2275953 24.8436869,14.8171752 C24.8436869,17.4066931 23.8192613,19.8411678 21.9590786,21.6721174 C20.099022,23.5032534 17.6258876,24.5117789 14.9955085,24.5117789 Z" id="Fill-4" fill="#333333"></path>
                    <path d="M14.9955085,12.8262256 C14.4546168,12.8262256 13.9465371,13.033074 13.5649724,13.4086311 C13.1827137,13.7849336 12.9723389,14.2850967 12.9723389,14.8171877 C12.9723389,15.3492166 13.1827137,15.8493796 13.5649724,16.22562 C13.946474,16.6011771 14.4545537,16.8079634 14.9956978,16.8079634 C15.5367788,16.8079634 16.0448585,16.6011771 16.4262969,16.22562 C16.8084926,15.8493796 17.0189305,15.3492166 17.0189305,14.8171877 C17.0189305,14.2850967 16.8084926,13.7849336 16.4262969,13.4086932 C16.0447323,13.033074 15.5365895,12.8262256 14.9955085,12.8262256 M14.9955085,17.4248435 C14.2868344,17.4248435 13.6213837,17.1538908 13.1217593,16.6619893 C12.6211253,16.1690318 12.3453791,15.5138877 12.3453791,14.8171877 C12.3453791,14.1204255 12.6211253,13.4652815 13.1217593,12.9723861 C13.621573,12.4804845 14.2870868,12.2095318 14.995824,12.2095318 C15.7045612,12.2095318 16.3699488,12.4804845 16.8695101,12.9723861 C17.3701441,13.4652815 17.6458903,14.1204255 17.6458903,14.8171877 C17.6458903,15.5138877 17.3701441,16.1690318 16.8695101,16.6619893 C16.3698857,17.1538908 15.7043088,17.4248435 14.9955085,17.4248435" id="Fill-6" fill="#333333"></path>
                    <path d="M27.1449311,14.969889 C26.9743092,14.969889 26.8337228,14.8332945 26.8314512,14.6653933 C26.7913197,11.6080752 25.5611887,8.73511919 23.3675865,6.57563475 C21.1400997,4.38285581 18.1778155,3.17077413 15.0264211,3.16269897 C14.8536538,3.16232627 14.7133829,3.02355773 14.7137615,2.85329606 C14.7142032,2.68371768 14.8548527,2.54563242 15.0272414,2.54563242 C18.3462289,2.5541424 21.4652531,3.83039056 23.8107996,6.13932759 C26.1205055,8.41298237 27.4159448,11.438062 27.458411,14.6573181 C27.4606195,14.8273313 27.3221154,14.9674043 27.1494743,14.969889 L27.1449311,14.969889 Z" id="Fill-8" fill="#333333"></path>
                </g>
            </g>
        </g>
    </g>
</svg>