<?xml version="1.0" encoding="UTF-8" standalone="no"?>
<svg width="26px" height="30px" viewBox="0 0 26 30" version="1.1" xmlns="http://www.w3.org/2000/svg" xmlns:xlink="http://www.w3.org/1999/xlink">
    <!-- Generator: sketchtool 48.2 (47327) - http://www.bohemiancoding.com/sketch -->
    <title>276CD338-B9D0-43E8-983E-9FA30CDBB1D6</title>
    <desc>Created with sketchtool.</desc>
    <defs></defs>
    <g id="Homepage-mobile" stroke="none" stroke-width="1" fill="none" fill-rule="evenodd" transform="translate(-268.000000, -453.000000)">
        <g id="quick-links" transform="translate(20.000000, 452.000000)" fill="#000000">
            <g id="Group-4" transform="translate(194.000000, 1.000000)">
                <g id="icon" transform="translate(54.000000, 0.000000)">
                    <g id="Group-3" transform="translate(0.000000, 0.021770)">
                        <path d="M0.9974757,6.07184071 L5.58151105,6.05458407 C5.71379381,6.0540531 5.82115758,5.946 5.82115758,5.81352212 L5.82115758,1.24077876 L0.9974757,6.07184071 Z M0.821717231,28.036354 C0.36866863,28.036354 -7.95287187e-05,27.6670619 -7.95287187e-05,27.2133451 L-7.95287187e-05,6.89670796 C-7.95287187e-05,6.53113274 0.202188513,6.04237168 0.460391753,5.78378761 L5.53167305,0.704761062 C5.78987629,0.446442478 6.27791753,0.243876106 6.64295434,0.243876106 L21.2688159,0.243876106 C21.7218645,0.243876106 22.0906127,0.612902655 22.0906127,1.06688496 L22.0906127,15.9832566 C22.0906127,16.1441416 21.9599205,16.2750265 21.7990074,16.2750265 C21.6383594,16.2750265 21.5076672,16.1441416 21.5076672,15.9832566 L21.5076672,1.06688496 C21.5076672,0.93520354 21.4003034,0.827946903 21.2688159,0.827946903 L6.64295434,0.827946903 C6.59894845,0.827946903 6.54831517,0.834318584 6.48787334,0.847327434 L6.40436819,0.865646018 L6.40436819,5.81352212 C6.40436819,6.26670796 6.03615022,6.63679646 5.58363181,6.63865487 L0.621039764,6.65723894 L0.603013255,6.74086726 C0.589758468,6.80219469 0.583396171,6.85316814 0.583396171,6.89670796 L0.583396171,27.2133451 C0.583396171,27.3450265 0.69022975,27.4525487 0.821717231,27.4525487 L12.6378292,27.4525487 C12.7984772,27.4525487 12.9294345,27.5834336 12.9294345,27.7443186 C12.9294345,27.905469 12.7984772,28.036354 12.6378292,28.036354 L0.821717231,28.036354 Z" id="Fill-1"></path>
                    </g>
                    <g id="Group-6" transform="translate(13.784978, 18.074867)">
                        <path d="M5.96505155,0.662415929 C3.0566863,0.662415929 0.690706922,3.03215044 0.690706922,5.94453982 C0.690706922,8.85719469 3.0566863,11.2269292 5.96505155,11.2269292 C8.87368189,11.2269292 11.2396613,8.85719469 11.2396613,5.94453982 C11.2396613,3.03215044 8.87368189,0.662415929 5.96505155,0.662415929 M5.96505155,11.6814425 C2.80643594,11.6814425 0.236597938,9.10807965 0.236597938,5.94453982 C0.236597938,2.78126549 2.80643594,0.207902655 5.96505155,0.207902655 C9.12393225,0.207902655 11.6935052,2.78126549 11.6935052,5.94453982 C11.6935052,9.10807965 9.12393225,11.6814425 5.96505155,11.6814425" id="Fill-4"></path>
                    </g>
                    <text id="SAR" font-family="ToyotaText-Bold, Toyota Text" font-size="4" font-weight="bold">
                        <tspan x="16" y="25.5">SAR</tspan>
                    </text>
                    <path d="M5.17389985,15.7989027 C5.01325184,15.7989027 4.88229455,15.6677522 4.88229455,15.5068673 C4.88229455,15.3457168 5.01325184,15.2148319 5.17389985,15.2148319 L16.9168454,15.2148319 C17.0774934,15.2148319 17.2081856,15.3457168 17.2081856,15.5068673 C17.2081856,15.6677522 17.0774934,15.7989027 16.9168454,15.7989027 L5.17389985,15.7989027 Z" id="Fill-9"></path>
                    <path d="M5.1244595,18.7951062 C4.96381149,18.7951062 4.8328542,18.6642212 4.8328542,18.5030708 C4.8328542,18.3421858 4.96381149,18.2113009 5.1244595,18.2113009 L13.6581561,18.2113009 C13.8190692,18.2113009 13.9500265,18.3421858 13.9500265,18.5030708 C13.9500265,18.6642212 13.8190692,18.7951062 13.6581561,18.7951062 L5.1244595,18.7951062 Z" id="Fill-11"></path>
                    <path d="M5.17389985,9.79890265 C5.01325184,9.79890265 4.88229455,9.66775221 4.88229455,9.50686726 C4.88229455,9.34571681 5.01325184,9.21483186 5.17389985,9.21483186 L16.9168454,9.21483186 C17.0774934,9.21483186 17.2081856,9.34571681 17.2081856,9.50686726 C17.2081856,9.66775221 17.0774934,9.79890265 16.9168454,9.79890265 L5.17389985,9.79890265 Z" id="Fill-9-Copy"></path>
                    <path d="M5.1244595,12.7951062 C4.96381149,12.7951062 4.8328542,12.6642212 4.8328542,12.5030708 C4.8328542,12.3421858 4.96381149,12.2113009 5.1244595,12.2113009 L13.6581561,12.2113009 C13.8190692,12.2113009 13.9500265,12.3421858 13.9500265,12.5030708 C13.9500265,12.6642212 13.8190692,12.7951062 13.6581561,12.7951062 L5.1244595,12.7951062 Z" id="Fill-11-Copy"></path>
                </g>
            </g>
        </g>
    </g>
</svg>